<svg width="90" height="90" viewBox="0 0 90 90" fill="none" xmlns="http://www.w3.org/2000/svg">
<g id="type=acolhimento, Size=90" clip-path="url(#clip0_18348_4680)">
<g id="Icon">
<g id="Bounding box">
<path id="Vector" d="M45 80.9999C44.507 81.005 44.0214 80.8757 43.5917 80.6249C42.0389 79.7249 6 58.4624 6 31.5C6 26.7776 7.43081 22.175 10.0898 18.344C12.7487 14.513 16.501 11.648 20.8151 10.1546C25.1292 8.66129 29.7864 8.61539 34.127 10.0234C38.4676 11.4315 42.2715 14.2221 45 18C47.7285 14.2221 51.5324 11.4315 55.873 10.0234C60.2136 8.61539 64.8708 8.66129 69.1849 10.1546C73.499 11.648 77.2513 14.513 79.9102 18.344C82.5692 22.175 84 26.7776 84 31.5C84 42.9749 77.6083 54.7499 65.0056 66.5249C59.2828 71.8674 53.0517 76.5917 46.4083 80.6249C45.9786 80.8757 45.493 81.005 45 80.9999ZM27.6667 15C23.4527 15 19.4113 16.7384 16.4315 19.8327C13.4518 22.9271 11.7778 27.1239 11.7778 31.5C11.7778 52.1999 38.5 70.3874 45 74.5124C51.5 70.3874 78.2222 52.1999 78.2222 31.5C78.2256 27.6856 76.9562 23.9878 74.6301 21.0357C72.3039 18.0837 69.0647 16.0598 65.4636 15.3083C61.8624 14.5569 58.1218 15.1243 54.8781 16.914C51.6344 18.7038 49.088 21.6053 47.6722 25.125C47.4546 25.6752 47.0843 26.1458 46.6085 26.477C46.1327 26.8082 45.5728 26.9851 45 26.9851C44.4272 26.9851 43.8673 26.8082 43.3915 26.477C42.9157 26.1458 42.5454 25.6752 42.3278 25.125C41.1254 22.1185 39.0897 19.5508 36.4793 17.7481C33.869 15.9454 30.8016 14.9888 27.6667 15Z" fill="url(#paint0_linear_18348_4680)"/>
</g>
</g>
</g>
<defs>
<linearGradient id="paint0_linear_18348_4680" x1="20.3203" y1="9.00001" x2="84.5527" y2="28.2084" gradientUnits="userSpaceOnUse">
<stop stop-color="#018383"/>
<stop offset="1" stop-color="#014687"/>
</linearGradient>
<clipPath id="clip0_18348_4680">
<rect width="90" height="90" fill="white"/>
</clipPath>
</defs>
</svg>
