<svg width="90" height="90" viewBox="0 0 90 90" fill="none" xmlns="http://www.w3.org/2000/svg">
<g id="type=inclus&#195;&#163;o, Size=90" clip-path="url(#clip0_18343_4721)">
<g id="Icon">
<g id="Bounding box">
<path id="Vector" d="M83.1474 37.2574C83.2333 36.9532 83.3349 36.6568 83.4078 36.3474C83.4234 36.2855 83.4286 36.2236 83.4442 36.1618C84.1881 33.189 84.1852 30.0811 83.4358 27.1096C82.6863 24.1382 81.2132 21.3937 79.1451 19.1161C77.2381 16.5774 74.7535 14.5195 71.8927 13.1094C69.032 11.6994 65.8758 10.9769 62.6803 11.0006H62.5449C62.2845 11.0006 61.9928 11.0186 61.7168 11.0263H61.4017C55.8984 11.327 50.4283 12.0632 45.0437 13.228L33.3857 11.3847H33.2946C27.742 10.435 22.0281 11.342 17.0537 13.9627C14.2513 15.6348 11.8447 17.8837 9.99699 20.5572L9.89023 20.699L9.82513 20.7892C7.38067 24.3792 6.05144 28.5993 6.00146 32.9285C5.95149 37.2578 7.18296 41.5068 9.5439 45.1512C9.49442 45.2389 9.46578 45.3369 9.41891 45.4271C9.19322 45.874 9.00088 46.3367 8.84343 46.8115C8.76011 47.0693 8.69761 47.3425 8.63772 47.6106C8.59085 47.8298 8.54398 48.0463 8.51273 48.2654C8.4806 48.5385 8.46148 48.813 8.45544 49.0878C8.45544 49.3095 8.4294 49.5261 8.43982 49.7452C8.45805 50.034 8.4919 50.3201 8.53877 50.6063C8.57002 50.8099 8.58564 51.0136 8.63251 51.2147C8.71063 51.5318 8.81479 51.8437 8.93457 52.1479C8.99446 52.3103 9.03352 52.4779 9.10643 52.6377C9.31996 53.1095 9.58035 53.5555 9.88762 53.9731C11.0658 55.6432 12.8041 56.8454 14.7935 57.3658C14.7192 58.4651 14.9041 59.5664 15.3334 60.5829C15.7627 61.5994 16.4247 62.5032 17.2672 63.223C18.7594 64.5173 20.5895 65.3696 22.5481 65.6824C22.9517 66.9791 23.66 68.1624 24.613 69.1369C25.9132 70.5326 27.6705 71.4276 29.5735 71.6633C30.0266 73.1921 30.8859 74.5739 32.0629 75.6592C33.5133 77.0719 35.4559 77.8763 37.4896 77.9021C38.9852 77.8951 40.4543 77.5099 41.7575 76.7832C43.6948 77.8814 45.9655 78.2527 48.158 77.8299C49.3088 77.6214 50.3992 77.1648 51.3519 76.4925C52.3045 75.8202 53.0961 74.9487 53.6706 73.9397C53.7253 73.8546 53.7565 73.7798 53.806 73.6948C56.0194 74.1433 58.3239 73.7489 60.2586 72.5914C61.96 71.6404 63.2553 70.1107 63.9041 68.2861C66.2321 68.3171 68.4871 67.487 70.224 65.9531C71.1756 65.1295 71.9146 64.0927 72.3794 62.9289C72.8441 61.7652 73.0211 60.5084 72.8956 59.2632C72.8956 59.191 72.8774 59.1343 72.8722 59.0647C74.2312 58.6615 75.4537 57.8995 76.4084 56.8605C77.6426 55.572 78.4372 53.9324 78.6801 52.173C78.9231 50.4135 78.6021 48.623 77.7624 47.0538C80.1034 44.3759 81.8747 41.2579 82.9703 37.8865C83.0328 37.6879 83.0849 37.4714 83.1474 37.2574ZM78.6894 32.8748C78.5595 34.171 78.2719 35.4469 77.8327 36.6748L77.7494 36.9326C76.8841 39.226 75.6359 41.3594 74.057 43.2435C65.8884 36.185 54.0065 25.8833 53.03 24.9604C51.9021 23.8916 50.4041 23.2902 48.8428 23.2795C48.3587 23.2754 47.8766 23.3441 47.4133 23.4832C45.7624 23.9988 41.7054 25.2878 38.164 26.5897C36.8099 27.0872 35.2632 25.8163 34.7919 24.7335C34.4794 24.0839 34.4273 23.3414 34.6409 22.6557C35.0653 21.8952 35.7788 21.3306 36.6225 21.0883C44.6327 18.3005 53.0019 16.6513 61.4799 16.1901H61.7949C62.084 16.1901 62.3704 16.1694 62.636 16.1643C64.5809 16.1326 66.5118 16.4949 68.31 17.229C70.9768 18.4324 73.3181 20.2434 75.1428 22.5139C76.7716 24.3389 77.9106 26.5401 78.4551 28.915L78.4785 29.0336C78.6038 29.6683 78.683 30.311 78.7155 30.9568C78.7233 31.1656 78.7363 31.4286 78.7363 31.6606C78.7363 32.0344 78.7363 32.4056 78.692 32.7743L78.6894 32.8748ZM13.7076 50.0417C13.6894 49.9308 13.6894 49.8097 13.6894 49.6937C13.6607 49.4453 13.6607 49.1944 13.6894 48.946C13.7181 48.7996 13.7555 48.655 13.8014 48.5129C13.8535 48.2835 13.9316 48.0592 14.0253 47.8452C14.1112 47.6906 14.2102 47.541 14.3196 47.4018C14.4745 47.1504 14.6628 46.9206 14.8794 46.7187L14.895 46.7058L19.7931 42.5939C20.1185 42.3458 20.4901 42.1636 20.8867 42.0578C21.2833 41.952 21.6971 41.9247 22.1044 41.9774C22.5117 42.0301 22.9045 42.1617 23.2603 42.3648C23.6161 42.5679 23.928 42.8385 24.1781 43.161C24.3603 43.425 24.4785 43.727 24.5237 44.0435C24.5688 44.3601 24.5397 44.6827 24.4385 44.9862L16.7569 52.3954C16.2266 52.4048 15.7029 52.2779 15.2369 52.0272C14.771 51.7764 14.3786 51.4103 14.0982 50.9646C13.9047 50.6872 13.7717 50.3728 13.7076 50.0417ZM20.2592 56.216L28.6882 48.085L28.6491 48.0463C29.1234 47.8125 29.6592 47.7296 30.1829 47.8091C30.8521 47.9896 31.4562 48.3608 31.9171 48.8764C32.3754 49.2631 32.6827 49.7942 32.7868 50.382C32.8256 50.9775 32.6938 51.5717 32.4067 52.0963C32.3801 52.1681 32.3575 52.2413 32.339 52.3155L23.8214 60.5315C23.2238 60.5574 22.6275 60.4556 22.0731 60.2332C21.5187 60.0108 21.0191 59.6729 20.6081 59.2425C20.27 58.8208 20.058 58.3137 19.9963 57.7787C19.9346 57.2437 20.0257 56.7023 20.2592 56.216ZM27.5112 64.1691L36.3126 55.6901C36.8724 55.8009 37.3854 56.0845 37.776 56.4996C38.3158 56.9675 38.6915 57.5931 38.8489 58.2861C38.89 58.5842 38.8767 58.8872 38.8098 59.1807L31.1984 66.5151C30.6906 66.6084 30.1672 66.5722 29.6774 66.4098C29.1877 66.2474 28.7478 65.9643 28.3992 65.587C27.9925 65.1918 27.6879 64.7054 27.5112 64.1691ZM35.6798 71.934C35.2089 71.5222 34.837 71.0113 34.5914 70.4388L41.7809 63.5117C42.2939 63.6793 42.7626 63.9551 43.1558 64.3186C43.5229 64.6089 43.8 64.9958 43.9552 65.4349C44.0435 65.7599 44.0435 66.1023 43.9552 66.4274C43.6299 67.4673 43.0879 68.4281 42.3642 69.2477L40.3956 71.5164H40.4112C40.3461 71.5576 40.2732 71.5757 40.2133 71.6221C39.4792 72.2855 38.5344 72.6747 37.5417 72.7229C36.8407 72.7112 36.1723 72.428 35.6798 71.934ZM47.3299 72.7254C46.9446 72.7847 46.5566 72.8028 46.1686 72.777L46.3613 72.5553L46.4238 72.4805L46.4264 72.4831C47.2156 71.5174 47.8836 70.4604 48.4158 69.3354L49.5667 70.5419C49.4725 70.7848 49.3593 71.0201 49.2282 71.2457C49.0426 71.6164 48.776 71.9415 48.4476 72.1975C48.1193 72.4534 47.7375 72.6338 47.3299 72.7254ZM63.9953 63.1224L59.3628 58.0412C58.9651 57.5804 58.4159 57.2733 57.8119 57.1739C57.2079 57.0745 56.5879 57.1892 56.061 57.4978C55.534 57.8064 55.1339 58.2891 54.931 58.861C54.7281 59.4329 54.7354 60.0573 54.9517 60.6243C55.0723 60.9459 55.2564 61.2404 55.4934 61.4906L59.2326 65.6153C59.2066 65.8783 59.1519 66.1387 59.0686 66.3887C58.8517 67.119 58.3569 67.7373 57.6885 68.1134C56.8744 68.6421 55.8864 68.8414 54.9283 68.6703L51.8035 65.3859C51.4662 65.0346 51.035 64.7854 50.5602 64.6672C50.0855 64.549 49.5865 64.5667 49.1215 64.7182C49.0812 64.4678 49.0264 64.2199 48.9574 63.9757C48.5275 62.6286 47.7278 61.4264 46.6477 60.5032C45.891 59.8196 45.024 59.2663 44.0828 58.8662C44.1009 58.3866 44.0704 57.9064 43.9917 57.4328C43.6559 55.6773 42.765 54.0729 41.4476 52.8517C40.49 51.8917 39.306 51.183 38.0026 50.7893C38.0156 50.4439 38.0026 50.101 37.9635 49.7581C37.7201 48.0218 36.8818 46.4209 35.5887 45.2234C34.4112 44.0031 32.8986 43.1508 31.2375 42.7717C30.6724 42.6637 30.0961 42.6248 29.5215 42.6557C29.3171 41.6981 28.9038 40.7963 28.3106 40.0133C27.6421 39.1538 26.809 38.4333 25.8588 37.893C24.9087 37.3527 23.8603 37.0032 22.7735 36.8646C21.6868 36.7259 20.5831 36.8008 19.5257 37.085C18.4683 37.3692 17.4778 37.857 16.611 38.5206L16.5199 38.5928L13.304 41.2739C11.7961 38.5553 11.0746 35.4777 11.2188 32.3795C11.3631 29.2812 12.3675 26.2824 14.1217 23.7126L14.1763 23.6353C15.6021 21.5307 17.4723 19.7574 19.6577 18.4381C23.6442 16.3826 28.2091 15.7013 32.6306 16.502L33.8388 16.6928C32.0538 17.4891 30.6279 18.909 29.8339 20.6809C29.4502 21.6531 29.2676 22.6917 29.2971 23.7351C29.3266 24.7784 29.5676 25.8053 30.0058 26.7547C30.7858 28.6225 32.2405 30.1357 34.0863 30.9994C35.932 31.863 38.0365 32.0151 39.9894 31.426C43.4266 30.1654 47.369 28.8996 48.8428 28.4381C48.96 28.4343 49.0766 28.4566 49.1839 28.5035C49.2912 28.5503 49.3864 28.6205 49.4626 28.7088C50.7359 29.8947 66.1071 43.2152 72.5285 48.7553L73.0492 49.1961C73.4536 49.8445 73.6265 50.6086 73.5401 51.3658C73.4537 52.1231 73.113 52.8297 72.5727 53.3725C72.2016 53.7684 71.7143 54.0389 71.1796 54.1459L66.6669 49.6163C66.1758 49.1535 65.5222 48.8976 64.8442 48.9028C64.1661 48.908 63.5166 49.1738 63.0328 49.6442C62.5489 50.1145 62.2686 50.7525 62.2509 51.4236C62.2332 52.0947 62.4796 52.7463 62.9381 53.241L67.2502 57.5668C67.2685 57.6442 67.2893 57.7215 67.3127 57.7963L67.344 57.8762C67.5395 58.4265 67.6577 59.0007 67.6955 59.5828C67.7678 60.0248 67.7294 60.4776 67.5837 60.9015C67.4379 61.3254 67.1893 61.7074 66.8596 62.0139C66.0811 62.7357 65.0525 63.1327 63.9875 63.1224H63.9953Z" fill="url(#paint0_linear_18343_4721)"/>
</g>
</g>
</g>
<defs>
<linearGradient id="paint0_linear_18343_4721" x1="20.3203" y1="11" x2="83.7466" y2="31.3828" gradientUnits="userSpaceOnUse">
<stop stop-color="#018383"/>
<stop offset="1" stop-color="#014687"/>
</linearGradient>
<clipPath id="clip0_18343_4721">
<rect width="90" height="90" fill="white"/>
</clipPath>
</defs>
</svg>
