<svg width="90" height="90" viewBox="0 0 90 90" fill="none" xmlns="http://www.w3.org/2000/svg">
<g id="type=valores, Size=90" clip-path="url(#clip0_18348_4930)">
<g id="Icon">
<g id="Bounding box">
<g id="Vector">
<path fill-rule="evenodd" clip-rule="evenodd" d="M45 78.4286C63.4621 78.4286 78.4286 63.4621 78.4286 45C78.4286 26.5379 63.4621 11.5714 45 11.5714C26.5379 11.5714 11.5714 26.5379 11.5714 45C11.5714 63.4621 26.5379 78.4286 45 78.4286ZM45 84C66.5391 84 84 66.5391 84 45C84 23.4609 66.5391 6 45 6C23.4609 6 6 23.4609 6 45C6 66.5391 23.4609 84 45 84Z" fill="url(#paint0_linear_18348_4930)"/>
<path fill-rule="evenodd" clip-rule="evenodd" d="M49.924 22.1099C48.9436 22.1099 47.9706 22.2944 47.06 22.6549C46.3114 22.9513 45.6149 23.3627 44.9984 23.8748C44.6286 23.5677 44.2317 23.2981 43.814 23.0682C42.6788 22.4432 41.3898 22.1105 40.0729 22.1105C38.0969 22.1105 36.1837 22.8595 34.7588 24.221C33.3306 25.5855 32.5094 27.4571 32.5094 29.4299C32.5094 31.4027 33.3306 33.2743 34.7588 34.6388L43.5552 43.0432C44.3627 43.8147 45.6342 43.8147 46.4418 43.0432L55.2382 34.6388C55.9448 33.9639 56.5107 33.1574 56.8987 32.2628C57.2868 31.3677 57.488 30.4048 57.488 29.4299C57.488 28.455 57.2868 27.4921 56.8987 26.597C56.5108 25.7025 55.9443 24.8955 55.2378 24.2207C54.5317 23.5459 53.6985 23.0153 52.7881 22.6549C51.8775 22.2944 50.9045 22.1099 49.924 22.1099ZM37.6454 27.2422C38.2736 26.642 39.1452 26.289 40.0729 26.289C40.9576 26.289 41.7912 26.6101 42.4115 27.1604C42.4416 27.1871 42.4713 27.2144 42.5004 27.2422L43.5552 28.25C44.3627 29.0216 45.6342 29.0216 46.4418 28.25L47.4969 27.2419C47.8071 26.9454 48.1805 26.7054 48.5981 26.5401C49.0159 26.3747 49.4667 26.2885 49.924 26.2885C50.3814 26.2885 50.8322 26.3747 51.25 26.5401C51.6676 26.7054 52.0417 26.9461 52.3519 27.2426C52.6621 27.5388 52.9027 27.8853 53.0651 28.2596C53.2273 28.6337 53.3094 29.0311 53.3094 29.4299C53.3094 29.8288 53.2273 30.2262 53.0651 30.6002C52.9027 30.9746 52.6617 31.3214 52.3516 31.6176L44.9985 38.643L37.6454 31.6176C37.0204 31.0204 36.688 30.2314 36.688 29.4299C36.688 29.0905 36.7476 28.7533 36.8638 28.4319C37.022 27.9945 37.2851 27.5865 37.6454 27.2422Z" fill="url(#paint1_linear_18348_4930)"/>
<path fill-rule="evenodd" clip-rule="evenodd" d="M20.219 46.4633C22.8586 44.1419 26.139 44.0698 28.3992 45.2634C30.4489 46.3459 32.7699 48.0814 34.5126 49.478C34.8691 49.7637 35.206 50.0389 35.5169 50.2965C35.71 50.1488 35.8995 50.0365 36.0696 49.952C36.249 49.8628 36.4114 49.8021 36.543 49.7608C36.6093 49.7401 36.6689 49.7239 36.7205 49.7113C36.7464 49.705 36.7703 49.6995 36.7923 49.6948L36.8237 49.6883L36.8382 49.6855L36.8452 49.6841L36.8486 49.6835C36.8486 49.6835 36.852 49.6828 37.2339 51.7369L36.852 49.6828L37.002 49.655L47.3948 49.259C47.4269 49.2527 47.4631 49.2456 47.5033 49.2379C47.6802 49.2039 47.9338 49.1566 48.2484 49.1018C48.8766 48.9924 49.7536 48.8523 50.7532 48.7287C52.7002 48.4881 55.3062 48.2841 57.4421 48.5824C58.1948 48.6875 58.8781 49.051 59.3786 49.3643C59.9247 49.7062 60.4872 50.1405 61.0324 50.6035C62.1254 51.5319 63.298 52.7041 64.3544 53.8245C65.4179 54.9526 66.3978 56.0648 67.1097 56.8923C67.4665 57.3069 67.7577 57.652 67.9605 57.8945C68.0619 58.0158 68.1414 58.1115 68.1959 58.1775L68.2588 58.2537L68.2803 58.2798L68.2821 58.282C68.2821 58.282 68.2823 58.2824 66.6655 59.6056L68.2821 58.282L69.4789 59.7444L59.6881 69.5542L58.2124 68.2101L57.9656 67.9858C57.8074 67.8422 57.5806 67.6366 57.3066 67.3891C56.7581 66.8937 56.0222 66.2317 55.27 65.563C54.5157 64.8925 53.7539 64.2233 53.1507 63.7102C52.9077 63.5035 52.699 63.3295 52.5317 63.1943C52.3505 63.2147 52.11 63.2514 51.7995 63.3086C51.1932 63.4205 50.4755 63.5799 49.6249 63.769C49.2664 63.8486 48.8843 63.9335 48.477 64.0223C45.8236 64.6007 42.3467 65.2881 38.9321 65.2881C37.9543 65.2881 36.9877 64.8542 36.3349 64.5155C35.5957 64.132 34.8439 63.6429 34.195 63.1866C33.5385 62.7249 32.946 62.2673 32.52 61.9275C32.306 61.7567 32.1316 61.6137 32.0092 61.5122C31.948 61.4614 31.8997 61.4209 31.8658 61.3923L31.826 61.3587L31.8146 61.3489L31.811 61.3459C31.811 61.3459 31.8089 61.3441 33.1669 59.7564L31.811 61.3459L31.7801 61.3195L22.1287 52.4386L22.1032 52.4134L23.5698 50.9254C22.1032 52.4134 22.1032 52.4134 22.1032 52.4134L22.0991 52.4094L22.0914 52.4018L22.0658 52.3763L21.9771 52.287C21.9026 52.2115 21.7986 52.1049 21.676 51.976C21.434 51.7214 21.1063 51.366 20.7886 50.985C20.4894 50.6261 20.122 50.1542 19.8615 49.6809C19.7398 49.4598 19.5562 49.0894 19.4787 48.6425C19.4022 48.2018 19.3688 47.2111 20.219 46.4633ZM25.0146 49.4157L34.5505 58.1903L34.5593 58.1978L34.6773 58.2964C34.7819 58.3831 34.9355 58.5091 35.126 58.6611C35.509 58.9667 36.0316 59.3697 36.5988 59.7686C37.1737 60.1729 37.7543 60.5444 38.2592 60.8064C38.7478 61.0599 38.9619 61.1014 38.9608 61.1082C38.9608 61.1082 38.9508 61.1095 38.9321 61.1095C41.8591 61.1095 44.9536 60.5137 47.587 59.9396C47.9404 59.8626 48.2912 59.7846 48.6338 59.7085C49.5222 59.5111 50.3562 59.3258 51.0417 59.1994C51.5216 59.1109 52.0056 59.036 52.4422 59.008C52.7872 58.9859 53.4661 58.959 54.1108 59.2393C54.3626 59.3488 54.5741 59.4993 54.6463 59.5506L54.6515 59.5543C54.7655 59.6353 54.8873 59.7287 55.0064 59.8228C55.2469 60.013 55.5406 60.2573 55.858 60.5273C56.4962 61.0702 57.2849 61.7633 58.0461 62.44C58.5739 62.9091 59.0928 63.3742 59.5457 63.7817L63.8308 59.4883C63.1563 58.7072 62.2668 57.7016 61.3139 56.691C60.3004 55.6159 59.2491 54.5712 58.3274 53.7884C57.8652 53.3959 57.4726 53.101 57.1613 52.9061C56.9432 52.7696 56.8299 52.7236 56.8058 52.7129C55.2468 52.5059 53.1265 52.6457 51.2658 52.8757C50.3497 52.989 49.5425 53.1179 48.9652 53.2184C48.6771 53.2686 48.4477 53.3114 48.2924 53.3413L48.1171 53.3756L48.075 53.3841L48.0659 53.386L47.8945 53.4215L38.3169 53.7865C38.3169 53.7865 38.3191 53.7974 38.3202 53.8029C38.4224 53.8566 38.5854 53.9276 38.8275 54.0031C39.5486 54.2279 40.5652 54.3709 41.6956 54.4426C42.7998 54.5125 43.8988 54.5081 44.7312 54.4849C45.1447 54.4734 45.4864 54.4575 45.7224 54.4445C45.8403 54.4381 45.9315 54.4324 45.9917 54.4285L46.0583 54.4239L46.073 54.4229L46.1023 54.4207L53.1758 54.075L53.3798 58.2486L46.3578 58.5918L46.3523 58.5921L46.2654 58.5981C46.1911 58.6029 46.0848 58.6095 45.9508 58.6169C45.6832 58.6315 45.3037 58.6492 44.8475 58.6619C43.9403 58.6871 42.7053 58.6935 41.4314 58.6128C40.1837 58.5337 38.7782 58.3647 37.5837 57.9922C36.9861 57.8059 36.3401 57.5384 35.7742 57.1319C35.1984 56.7182 34.6024 56.0822 34.3513 55.1619C34.3079 55.0028 34.27 54.8458 34.2377 54.6909C34.1599 54.6232 34.0748 54.5495 33.983 54.4704C33.4662 54.0253 32.739 53.4115 31.8995 52.7387C30.1898 51.3685 28.1264 49.8448 26.4478 48.9584C25.9631 48.7024 25.2269 48.5693 24.4223 48.794C24.522 48.9033 24.6178 49.0058 24.7042 49.0967C24.8063 49.2041 24.8921 49.2919 24.9513 49.3519L25.0146 49.4157ZM38.2851 53.3033C38.2851 53.3033 38.2845 53.3135 38.2785 53.3308C38.2812 53.3114 38.2851 53.3033 38.2851 53.3033Z" fill="url(#paint2_linear_18348_4930)"/>
</g>
</g>
</g>
</g>
<defs>
<linearGradient id="paint0_linear_18348_4930" x1="20.3203" y1="6.00001" x2="85.3423" y2="23.9488" gradientUnits="userSpaceOnUse">
<stop stop-color="#018383"/>
<stop offset="1" stop-color="#014687"/>
</linearGradient>
<linearGradient id="paint1_linear_18348_4930" x1="20.3203" y1="6.00001" x2="85.3423" y2="23.9488" gradientUnits="userSpaceOnUse">
<stop stop-color="#018383"/>
<stop offset="1" stop-color="#014687"/>
</linearGradient>
<linearGradient id="paint2_linear_18348_4930" x1="20.3203" y1="6.00001" x2="85.3423" y2="23.9488" gradientUnits="userSpaceOnUse">
<stop stop-color="#018383"/>
<stop offset="1" stop-color="#014687"/>
</linearGradient>
<clipPath id="clip0_18348_4930">
<rect width="90" height="90" fill="white"/>
</clipPath>
</defs>
</svg>
